# xmcd
#
# Track frame offsets: 
#        150
#        15805
#        67848
#        86586
#        110349
#        130302
#        145762
#        164355
#        185879
#        207651
#        225780
#        246682
#        264103
#        303065
#        320790
#        340736
#
# Disc length: 4769 seconds
#
# Revision: 0
# Processed by: cddbd v1.5.2PL0 Copyright (c) Steve Scherf et al.
# Submitted via: ExactAudioCopy v0.95a5
#
DISCID=d7129f10
DTITLE=Various Artist - Akella Presents - Rockin' Blues - vol.19  CD2
DYEAR=2010
DGENRE=Blues
TTITLE0=Hey Mary - The PIRATES
TTITLE1=The Blues Ain't Never Gonna Die - MIKE GRIFFIN
TTITLE2=Hard-Headed Woman - The POUNDERS
TTITLE3=Make It Rain - TIM WAGONER and BILL BLUE YOUNDER
TTITLE4=Blue Train - STEDDY EDDY
TTITLE5=Mellow Down Easy - Dr. FEELGOOD
TTITLE6=Murdered By Love - TOMBSTONE BULLETS
TTITLE7=Blue Drops Of Rain - COREY STEVENS
TTITLE8=Storm Comin' Thru - METROPOLITIAN BLUES ALL-STARS
TTITLE9=Nasty Habits - TOMMY CASTRO
TTITLE10=I Can't Seam To Snake These Blues - GARY SMITH
TTITLE11=Country Boy - KENNY LEE
TTITLE12=Don't Answer the Door - PAUL LAMB and The KING SNAKES
TTITLE13=I Think I Love You to Much - BERNARD ALLISON
TTITLE14=The Blues - TOSCHO
TTITLE15=Mustang Sally - GUITAR PETE
EXTD=
EXTT0=
EXTT1=
EXTT2=
EXTT3=
EXTT4=
EXTT5=
EXTT6=
EXTT7=
EXTT8=
EXTT9=
EXTT10=
EXTT11=
EXTT12=
EXTT13=
EXTT14=
EXTT15=
PLAYORDER=
